<?xml version="1.0" encoding="UTF-8" standalone="no"?>
<!-- Created with Inkscape (http://www.inkscape.org/) -->
<svg
   xmlns:dc="http://purl.org/dc/elements/1.1/"
   xmlns:cc="http://creativecommons.org/ns#"
   xmlns:rdf="http://www.w3.org/1999/02/22-rdf-syntax-ns#"
   xmlns:svg="http://www.w3.org/2000/svg"
   xmlns="http://www.w3.org/2000/svg"
   xmlns:sodipodi="http://sodipodi.sourceforge.net/DTD/sodipodi-0.dtd"
   xmlns:inkscape="http://www.inkscape.org/namespaces/inkscape"
   width="64px"
   height="64px"
   id="svg4438"
   sodipodi:version="0.32"
   inkscape:version="0.46"
   sodipodi:docname="banner.svg"
   inkscape:output_extension="org.inkscape.output.svg.inkscape">
  <defs
     id="defs4440">
    <inkscape:perspective
       sodipodi:type="inkscape:persp3d"
       inkscape:vp_x="0 : 32 : 1"
       inkscape:vp_y="0 : 1000 : 0"
       inkscape:vp_z="64 : 32 : 1"
       inkscape:persp3d-origin="32 : 21.333333 : 1"
       id="perspective4446" />
  </defs>
  <sodipodi:namedview
     id="base"
     pagecolor="#ffffff"
     bordercolor="#666666"
     borderopacity="1.0"
     inkscape:pageopacity="0.0"
     inkscape:pageshadow="2"
     inkscape:zoom="5.5"
     inkscape:cx="32"
     inkscape:cy="32"
     inkscape:current-layer="layer1"
     showgrid="true"
     inkscape:document-units="px"
     inkscape:grid-bbox="true"
     inkscape:window-width="640"
     inkscape:window-height="708"
     inkscape:window-x="504"
     inkscape:window-y="262" />
  <metadata
     id="metadata4443">
    <rdf:RDF>
      <cc:Work
         rdf:about="">
        <dc:format>image/svg+xml</dc:format>
        <dc:type
           rdf:resource="http://purl.org/dc/dcmitype/StillImage" />
      </cc:Work>
    </rdf:RDF>
  </metadata>
  <g
     id="layer1"
     inkscape:label="Layer 1"
     inkscape:groupmode="layer">
    <rect
       style="fill:#00f0ff;fill-opacity:1;fill-rule:evenodd;stroke:#000000;stroke-width:1.44610786px;stroke-linecap:butt;stroke-linejoin:miter;stroke-opacity:1"
       id="rect2477"
       width="25.721468"
       height="24.773457"
       x="3.6847205"
       y="7.6132731"
       ry="1.1526389" />
    <path
       sodipodi:type="arc"
       style="fill:none;fill-opacity:1;stroke:#000000;stroke-opacity:1"
       id="path3885"
       sodipodi:cx="7.054956"
       sodipodi:cy="22.533857"
       sodipodi:rx="2.2325809"
       sodipodi:ry="3.0363102"
       d="M 9.2875369,22.533857 A 2.2325809,3.0363102 0 1 1 4.8223751,22.533857 A 2.2325809,3.0363102 0 1 1 9.2875369,22.533857 z"
       transform="matrix(1.2186699,0,0,0.9843161,0.6249269,3.4456676)" />
    <path
       sodipodi:type="arc"
       style="fill:none;fill-opacity:1;stroke:#000000;stroke-opacity:1"
       id="path4398"
       sodipodi:cx="7.054956"
       sodipodi:cy="22.533857"
       sodipodi:rx="2.2325809"
       sodipodi:ry="3.0363102"
       d="M 9.2875369,22.533857 A 2.2325809,3.0363102 0 1 1 4.8223751,22.533857 A 2.2325809,3.0363102 0 1 1 9.2875369,22.533857 z"
       transform="matrix(1.2186699,0,0,0.9843161,8.215702,-7.4493294)" />
    <path
       sodipodi:type="arc"
       style="fill:none;fill-opacity:1;stroke:#000000;stroke-opacity:1"
       id="path4400"
       sodipodi:cx="7.054956"
       sodipodi:cy="22.533857"
       sodipodi:rx="2.2325809"
       sodipodi:ry="3.0363102"
       d="M 9.2875369,22.533857 A 2.2325809,3.0363102 0 1 1 4.8223751,22.533857 A 2.2325809,3.0363102 0 1 1 9.2875369,22.533857 z"
       transform="matrix(1.2186699,0,0,0.9843161,14.824142,3.2670596)" />
    <path
       style="fill:none;fill-rule:evenodd;stroke:#000000;stroke-width:1px;stroke-linecap:butt;stroke-linejoin:miter;stroke-opacity:1"
       d="M 8.9546794,22.589794 C 7.0793114,21.696762 7.0793112,14.195289 13.598448,15.266929"
       id="path4414"
       sodipodi:nodetypes="cc" />
    <path
       style="fill:none;fill-rule:evenodd;stroke:#000000;stroke-width:1px;stroke-linecap:butt;stroke-linejoin:miter;stroke-opacity:1"
       d="M 19.849675,15.088322 C 22.885985,14.820412 26.904631,16.427871 24.13623,22.321885"
       id="path4416"
       sodipodi:nodetypes="cc" />
    <rect
       style="fill:#00f0ff;fill-opacity:1;fill-rule:evenodd;stroke:#000000;stroke-width:1.44610786px;stroke-linecap:butt;stroke-linejoin:miter;stroke-opacity:1"
       id="rect4454"
       width="25.721468"
       height="24.773457"
       x="18.775631"
       y="23.249636"
       ry="1.1526389" />
    <path
       sodipodi:type="arc"
       style="fill:none;fill-opacity:1;stroke:#000000;stroke-opacity:1"
       id="path4456"
       sodipodi:cx="7.054956"
       sodipodi:cy="22.533857"
       sodipodi:rx="2.2325809"
       sodipodi:ry="3.0363102"
       d="M 9.2875369,22.533857 A 2.2325809,3.0363102 0 1 1 4.8223751,22.533857 A 2.2325809,3.0363102 0 1 1 9.2875369,22.533857 z"
       transform="matrix(1.2186699,0,0,0.9843161,15.715836,19.08203)" />
    <path
       sodipodi:type="arc"
       style="fill:none;fill-opacity:1;stroke:#000000;stroke-opacity:1"
       id="path4458"
       sodipodi:cx="7.054956"
       sodipodi:cy="22.533857"
       sodipodi:rx="2.2325809"
       sodipodi:ry="3.0363102"
       d="M 9.2875369,22.533857 A 2.2325809,3.0363102 0 1 1 4.8223751,22.533857 A 2.2325809,3.0363102 0 1 1 9.2875369,22.533857 z"
       transform="matrix(1.2186699,0,0,0.9843161,23.306611,8.1870328)" />
    <path
       sodipodi:type="arc"
       style="fill:none;fill-opacity:1;stroke:#000000;stroke-opacity:1"
       id="path4460"
       sodipodi:cx="7.054956"
       sodipodi:cy="22.533857"
       sodipodi:rx="2.2325809"
       sodipodi:ry="3.0363102"
       d="M 9.2875369,22.533857 A 2.2325809,3.0363102 0 1 1 4.8223751,22.533857 A 2.2325809,3.0363102 0 1 1 9.2875369,22.533857 z"
       transform="matrix(1.2186699,0,0,0.9843161,29.915051,18.903422)" />
    <path
       style="fill:none;fill-rule:evenodd;stroke:#000000;stroke-width:1px;stroke-linecap:butt;stroke-linejoin:miter;stroke-opacity:1"
       d="M 24.045589,38.226156 C 22.170221,37.333124 22.170221,29.831651 28.689357,30.903291"
       id="path4462"
       sodipodi:nodetypes="cc" />
    <path
       style="fill:none;fill-rule:evenodd;stroke:#000000;stroke-width:1px;stroke-linecap:butt;stroke-linejoin:miter;stroke-opacity:1"
       d="M 34.940584,30.724684 C 37.976894,30.456774 41.99554,32.064233 39.227139,37.958247"
       id="path4464"
       sodipodi:nodetypes="cc" />
    <rect
       style="fill:#00f0ff;fill-opacity:1;fill-rule:evenodd;stroke:#000000;stroke-width:1.44610786px;stroke-linecap:butt;stroke-linejoin:miter;stroke-opacity:1"
       id="rect4466"
       width="25.721468"
       height="24.773457"
       x="34.411995"
       y="36.340546"
       ry="1.1526389" />
    <rect
       style="fill:none;fill-opacity:1;stroke:#000000;stroke-opacity:1"
       id="rect3255"
       width="6.4308147"
       height="5.8940139"
       x="37.562241"
       y="39.648571"
       ry="1.1526389" />
    <rect
       style="fill:none;fill-opacity:1;stroke:#000000;stroke-width:1.32416213;stroke-opacity:1"
       id="rect3257"
       width="8.5178404"
       height="7.8024325"
       x="47.847816"
       y="42.74015"
       ry="1.5258511" />
    <rect
       style="fill:none;fill-opacity:1;stroke:#000000;stroke-width:1.32416213;stroke-opacity:1"
       id="rect3259"
       width="8.5178404"
       height="7.8024325"
       x="37.948071"
       y="50.371494"
       ry="1.5258511" />
  </g>
</svg>
